<svg width="187" height="51" viewBox="0 0 187 51" fill="none" xmlns="http://www.w3.org/2000/svg">
<path d="M18.394 37H24.548L15.912 13.132H9.18L0.544 37H6.63L8.058 32.784H16.966L18.394 37ZM15.47 28.296H9.588L12.512 19.558L15.47 28.296ZM38.3284 12.86C31.1884 12.86 26.1904 17.892 26.1904 25.032C26.1904 32.172 31.2224 37.17 38.3624 37.17C44.6524 37.17 48.6304 33.056 49.8544 28.942V23.536H37.2064V27.82H44.5844C43.7004 30.506 41.6944 32.036 38.8044 32.036C34.6224 32.036 32.1064 29.452 32.1064 25.032C32.1064 20.884 34.5884 18.232 38.3284 18.232C40.5044 18.232 42.1364 19.082 43.0204 20.68H49.4464C48.1884 15.784 44.0404 12.86 38.3284 12.86ZM61.4388 22.414C63.3768 22.414 65.0088 23.604 65.0088 25.678H57.7328C58.0728 23.57 59.5348 22.414 61.4388 22.414ZM70.5168 30.71H64.3288C63.8528 31.73 62.9348 32.546 61.3028 32.546C59.4328 32.546 57.9028 31.39 57.6988 28.908H70.8568C70.9248 28.33 70.9588 27.752 70.9588 27.208C70.9588 21.428 67.0488 17.756 61.5068 17.756C55.8628 17.756 51.9188 21.496 51.9188 27.514C51.9188 33.532 55.9308 37.272 61.5068 37.272C66.2328 37.272 69.5988 34.416 70.5168 30.71ZM87.116 37H92.896V25.916C92.896 20.816 89.972 17.824 85.586 17.824C83.036 17.824 80.996 18.946 79.84 20.544V18.028H74.026V37H79.84V26.698C79.84 24.114 81.268 22.686 83.478 22.686C85.688 22.686 87.116 24.114 87.116 26.698V37Z" fill="#197DC6"/>
<path d="M96.2901 25.134C96.2901 32.24 101.492 37.204 108.122 37.204C113.256 37.204 117.336 34.654 119.104 30.098H115.398C114.106 32.92 111.59 34.518 108.122 34.518C103.158 34.518 99.4521 30.914 99.4521 25.134C99.4521 19.32 103.158 15.716 108.122 15.716C111.59 15.716 114.106 17.314 115.398 20.17H119.104C117.336 15.58 113.256 12.996 108.122 12.996C101.492 12.996 96.2901 18.028 96.2901 25.134ZM131.632 20.68C134.828 20.68 137.548 22.686 137.514 26.324H125.75C126.09 22.686 128.606 20.68 131.632 20.68ZM140.336 31.254H137.004C136.324 33.26 134.556 34.688 131.768 34.688C128.606 34.688 125.954 32.614 125.716 28.84H140.608C140.676 28.194 140.71 27.65 140.71 26.97C140.71 21.87 137.174 18.062 131.768 18.062C126.328 18.062 122.554 21.768 122.554 27.65C122.554 33.566 126.464 37.306 131.768 37.306C136.392 37.306 139.384 34.654 140.336 31.254ZM147.888 26.868C147.888 22.55 150.132 21.224 153.09 21.224H153.906V18.028C150.948 18.028 148.942 19.32 147.888 21.394V18.368H144.794V37H147.888V26.868ZM158.157 31.9C158.157 35.64 160.027 37 163.325 37H166.113V34.382H163.835C161.931 34.382 161.251 33.736 161.251 31.9V20.918H166.113V18.368H161.251V13.676H158.157V18.368H155.743V20.918H158.157V31.9ZM169.862 37H172.956V18.368H169.862V37ZM171.46 15.342C172.582 15.342 173.5 14.424 173.5 13.234C173.5 12.044 172.582 11.126 171.46 11.126C170.27 11.126 169.352 12.044 169.352 13.234C169.352 14.424 170.27 15.342 171.46 15.342ZM178.807 37H181.901V20.918H185.811V18.368H181.901V17.042C181.901 14.628 182.819 13.608 185.607 13.608V11.024C180.847 11.024 178.807 12.894 178.807 17.042V18.368H176.393V20.918H178.807V37Z" fill="#32393D"/>
</svg>
