<svg width="2254" height="2080" viewBox="0 0 2254 2080" fill="none" xmlns="http://www.w3.org/2000/svg">
<path d="M1998.19 936.2C1998.19 1417.35 1608.14 1807.4 1126.99 1807.4C645.843 1807.4 255.793 1417.35 255.793 936.2C255.793 455.05 645.843 65 1126.99 65C1608.14 65 1998.19 455.05 1998.19 936.2Z" fill="#FFBB0D"/>
<path fill-rule="evenodd" clip-rule="evenodd" d="M2062.73 936.2C2062.73 1452.99 1643.78 1871.93 1126.99 1871.93C610.202 1871.93 191.26 1452.99 191.26 936.2C191.26 419.409 610.202 0.466797 1126.99 0.466797C1643.78 0.466797 2062.73 419.409 2062.73 936.2ZM1126.99 1807.4C1608.14 1807.4 1998.19 1417.35 1998.19 936.2C1998.19 455.05 1608.14 65.0001 1126.99 65.0001C645.843 65.0001 255.793 455.05 255.793 936.2C255.793 1417.35 645.843 1807.4 1126.99 1807.4Z" fill="#E89B05"/>
<path fill-rule="evenodd" clip-rule="evenodd" d="M320.326 968.467C302.506 968.467 288.06 954.02 288.06 936.2C288.06 472.87 663.663 97.2668 1126.99 97.2668C1144.81 97.2668 1159.26 111.713 1159.26 129.533C1159.26 147.354 1144.81 161.8 1126.99 161.8C699.304 161.8 352.593 508.511 352.593 936.2C352.593 954.02 338.147 968.467 320.326 968.467Z" fill="#E8AA0A"/>
<path fill-rule="evenodd" clip-rule="evenodd" d="M1933.66 903.934C1951.48 903.934 1965.93 918.38 1965.93 936.2C1965.93 1399.53 1590.32 1775.13 1126.99 1775.13C1109.17 1775.13 1094.73 1760.69 1094.73 1742.87C1094.73 1725.05 1109.17 1710.6 1126.99 1710.6C1554.68 1710.6 1901.39 1363.89 1901.39 936.2C1901.39 918.38 1915.84 903.934 1933.66 903.934Z" fill="#E8AA0A"/>
<path d="M1772.33 936.2C1772.33 1292.61 1483.4 1581.53 1126.99 1581.53C770.585 1581.53 481.66 1292.61 481.66 936.2C481.66 579.792 770.585 290.867 1126.99 290.867C1483.4 290.867 1772.33 579.792 1772.33 936.2Z" fill="#FFDD28"/>
<path fill-rule="evenodd" clip-rule="evenodd" d="M1836.86 936.2C1836.86 1328.25 1519.04 1646.07 1126.99 1646.07C734.945 1646.07 417.126 1328.25 417.126 936.2C417.126 544.152 734.945 226.333 1126.99 226.333C1519.04 226.333 1836.86 544.152 1836.86 936.2ZM1126.99 1581.53C1483.4 1581.53 1772.33 1292.61 1772.33 936.2C1772.33 579.792 1483.4 290.867 1126.99 290.867C770.585 290.867 481.66 579.792 481.66 936.2C481.66 1292.61 770.585 1581.53 1126.99 1581.53Z" fill="#E89B05"/>
<path fill-rule="evenodd" clip-rule="evenodd" d="M1126.99 1484.73C1429.94 1484.73 1675.53 1239.15 1675.53 936.2C1675.53 918.379 1689.97 903.933 1707.79 903.933C1725.61 903.933 1740.06 918.379 1740.06 936.2C1740.06 1274.79 1465.58 1549.27 1126.99 1549.27C1109.17 1549.27 1094.73 1534.82 1094.73 1517C1094.73 1499.18 1109.17 1484.73 1126.99 1484.73Z" fill="#ECC704"/>
<path fill-rule="evenodd" clip-rule="evenodd" d="M1126.99 387.667C824.047 387.667 578.46 633.253 578.46 936.2C578.46 954.02 564.014 968.467 546.193 968.467C528.373 968.467 513.927 954.02 513.927 936.2C513.927 597.613 788.406 323.133 1126.99 323.133C1144.81 323.133 1159.26 337.58 1159.26 355.4C1159.26 373.22 1144.81 387.667 1126.99 387.667Z" fill="#FFEF9C"/>
<path d="M140.812 1795.22L57.7 1629C48.649 1610.9 61.812 1589.6 82.0507 1589.6L446.375 1589.6C461.411 1589.6 473.6 1601.79 473.6 1616.83L473.6 1997.98C473.6 2013.01 461.411 2025.2 446.375 2025.2L82.0507 2025.2C61.812 2025.2 48.649 2003.9 57.6999 1985.8L140.812 1819.58C144.644 1811.91 144.644 1802.89 140.812 1795.22Z" fill="#E16104"/>
<path d="M2113.19 1795.22L2196.3 1629C2205.35 1610.9 2192.19 1589.6 2171.95 1589.6L1807.62 1589.6C1792.59 1589.6 1780.4 1601.79 1780.4 1616.83L1780.4 1997.98C1780.4 2013.01 1792.59 2025.2 1807.62 2025.2L2171.95 2025.2C2192.19 2025.2 2205.35 2003.9 2196.3 1985.8L2113.19 1819.58C2109.36 1811.91 2109.36 1802.89 2113.19 1795.22Z" fill="#E16104"/>
<path fill-rule="evenodd" clip-rule="evenodd" d="M86.0233 1807.4L8.99895 1653.35C-18.1538 1599.05 21.3351 1535.15 82.0513 1535.15L446.375 1535.15C491.483 1535.15 528.05 1571.72 528.05 1616.83L528.05 1997.98C528.05 2043.08 491.483 2079.65 446.375 2079.65L82.0513 2079.65C21.3351 2079.65 -18.1538 2015.75 8.99894 1961.45L86.0233 1807.4ZM92.0953 1819.54C92.1007 1819.56 92.1059 1819.57 92.1113 1819.58L116.462 1807.4L92.1109 1819.58L92.0953 1819.54ZM2167.98 1807.4L2245 1653.35C2272.15 1599.05 2232.66 1535.15 2171.95 1535.15L1807.63 1535.15C1762.52 1535.15 1725.95 1571.72 1725.95 1616.83L1725.95 1997.98C1725.95 2043.08 1762.52 2079.65 1807.63 2079.65L2171.95 2079.65C2232.66 2079.65 2272.15 2015.76 2245 1961.45L2167.98 1807.4ZM2196.3 1629L2113.19 1795.22C2109.36 1802.89 2109.36 1811.91 2113.19 1819.58L2196.3 1985.8C2205.35 2003.9 2192.19 2025.2 2171.95 2025.2L1807.63 2025.2C1792.59 2025.2 1780.4 2013.01 1780.4 1997.98L1780.4 1616.83C1780.4 1601.79 1792.59 1589.6 1807.63 1589.6L2171.95 1589.6C2192.19 1589.6 2205.35 1610.9 2196.3 1629ZM57.7006 1629L140.812 1795.22C144.645 1802.89 144.645 1811.91 140.812 1819.58L57.7006 1985.8C48.6496 2003.9 61.8126 2025.2 82.0513 2025.2L446.375 2025.2C461.411 2025.2 473.6 2013.01 473.6 1997.98L473.6 1616.83C473.6 1601.79 461.411 1589.6 446.375 1589.6L82.0513 1589.6C61.8126 1589.6 48.6496 1610.9 57.7006 1629Z" fill="#BD4501"/>
<path fill-rule="evenodd" clip-rule="evenodd" d="M96.6425 1614.22C101.628 1606.31 110.324 1601.51 119.675 1601.51H235.381C250.417 1601.51 262.606 1613.7 262.606 1628.74C262.606 1643.77 250.417 1655.96 235.381 1655.96H162.874L219.104 1773.53C225.592 1787.1 219.855 1803.35 206.29 1809.84C192.726 1816.33 176.47 1810.59 169.983 1797.03L95.1144 1640.48C91.08 1632.05 91.657 1622.13 96.6425 1614.22Z" fill="#FA7616"/>
<path d="M1889.3 1889.08L1889.3 1507.93C1889.3 1492.89 1877.11 1480.7 1862.08 1480.7L391.925 1480.7C376.889 1480.7 364.7 1492.89 364.7 1507.93L364.7 1889.08C364.7 1904.11 376.889 1916.3 391.925 1916.3L1862.08 1916.3C1877.11 1916.3 1889.3 1904.11 1889.3 1889.08Z" fill="#FF8B04"/>
<path fill-rule="evenodd" clip-rule="evenodd" d="M1943.75 1507.93L1943.75 1889.08C1943.75 1934.18 1907.18 1970.75 1862.07 1970.75L391.925 1970.75C346.817 1970.75 310.25 1934.18 310.25 1889.08L310.25 1507.93C310.25 1462.82 346.817 1426.25 391.925 1426.25L1862.08 1426.25C1907.18 1426.25 1943.75 1462.82 1943.75 1507.93ZM1889.3 1507.93L1889.3 1889.08C1889.3 1904.11 1877.11 1916.3 1862.07 1916.3L391.925 1916.3C376.889 1916.3 364.7 1904.11 364.7 1889.08L364.7 1507.93C364.7 1492.89 376.889 1480.7 391.925 1480.7L1862.08 1480.7C1877.11 1480.7 1889.3 1492.89 1889.3 1507.93Z" fill="#BD4501"/>
<path fill-rule="evenodd" clip-rule="evenodd" d="M381.716 1519.84C381.716 1504.8 393.905 1492.61 408.941 1492.61H1429.88C1444.91 1492.61 1457.1 1504.8 1457.1 1519.84C1457.1 1534.87 1444.91 1547.06 1429.88 1547.06H436.166V1737.64C436.166 1752.67 423.977 1764.86 408.941 1764.86C393.905 1764.86 381.716 1752.67 381.716 1737.64V1519.84Z" fill="#FFB053"/>
<path d="M1814.09 1708.84C1798.67 1708.84 1786.17 1696.65 1786.17 1681.61C1786.17 1666.56 1798.67 1654.37 1814.09 1654.37C1829.5 1654.37 1842 1666.56 1842 1681.61C1842 1696.65 1829.5 1708.84 1814.09 1708.84Z" fill="#E77D02"/>
<path d="M1707.88 1697.94C1688.7 1697.94 1673.15 1682.78 1673.15 1664.07C1673.15 1645.36 1688.7 1630.19 1707.88 1630.19C1727.05 1630.19 1742.6 1645.36 1742.6 1664.07C1742.6 1682.78 1727.05 1697.94 1707.88 1697.94Z" fill="#E77D02"/>
<path d="M1755.19 1775.39C1745.61 1775.39 1737.83 1767.81 1737.83 1758.46C1737.83 1749.1 1745.61 1741.52 1755.19 1741.52C1764.78 1741.52 1772.56 1749.1 1772.56 1758.46C1772.56 1767.81 1764.78 1775.39 1755.19 1775.39Z" fill="#E77D02"/>
<path d="M1725.24 1596.25C1715.65 1596.25 1707.88 1588.67 1707.88 1579.31C1707.88 1569.96 1715.65 1562.37 1725.24 1562.37C1734.83 1562.37 1742.6 1569.96 1742.6 1579.31C1742.6 1588.67 1734.83 1596.25 1725.24 1596.25Z" fill="#E77D02"/>
<path d="M1634.01 1758.46C1624.42 1758.46 1616.64 1750.87 1616.64 1741.52C1616.64 1732.16 1624.42 1724.58 1634.01 1724.58C1643.59 1724.58 1651.37 1732.16 1651.37 1741.52C1651.37 1750.87 1643.59 1758.46 1634.01 1758.46Z" fill="#E77D02"/>
<path d="M1616.64 1671.31C1607.06 1671.31 1599.28 1663.73 1599.28 1654.37C1599.28 1645.02 1607.06 1637.43 1616.64 1637.43C1626.23 1637.43 1634.01 1645.02 1634.01 1654.37C1634.01 1663.73 1626.23 1671.31 1616.64 1671.31Z" fill="#E77D02"/>
<path d="M1498.29 1867.79C1488.7 1867.79 1480.92 1860.2 1480.92 1850.85C1480.92 1841.5 1488.7 1833.91 1498.29 1833.91C1507.87 1833.91 1515.65 1841.5 1515.65 1850.85C1515.65 1860.2 1507.87 1867.79 1498.29 1867.79Z" fill="#E77D02"/>
<path d="M1843.7 1803.13C1834.12 1803.13 1826.34 1795.54 1826.34 1786.19C1826.34 1776.84 1834.12 1769.25 1843.7 1769.25C1853.29 1769.25 1861.06 1776.84 1861.06 1786.19C1861.06 1795.54 1853.29 1803.13 1843.7 1803.13Z" fill="#E77D02"/>
<path d="M1679.62 1840.22C1664.02 1840.22 1651.37 1827.88 1651.37 1812.66C1651.37 1797.43 1664.02 1785.09 1679.62 1785.09C1695.23 1785.09 1707.88 1797.43 1707.88 1812.66C1707.88 1827.88 1695.23 1840.22 1679.62 1840.22Z" fill="#E77D02"/>
<path d="M1800.81 1867.79C1785.21 1867.79 1772.56 1855.45 1772.56 1840.22C1772.56 1825 1785.21 1812.66 1800.81 1812.66C1816.41 1812.66 1829.06 1825 1829.06 1840.22C1829.06 1855.45 1816.41 1867.79 1800.81 1867.79Z" fill="#E77D02"/>
<path d="M1553.67 1813.59C1538.06 1813.59 1525.41 1801.25 1525.41 1786.02C1525.41 1770.8 1538.06 1758.46 1553.67 1758.46C1569.27 1758.46 1581.92 1770.8 1581.92 1786.02C1581.92 1801.25 1569.27 1813.59 1553.67 1813.59Z" fill="#E77D02"/>
<path d="M1599.28 1876.16C1589.7 1876.16 1581.92 1868.57 1581.92 1859.22C1581.92 1849.86 1589.7 1842.28 1599.28 1842.28C1608.87 1842.28 1616.65 1849.86 1616.65 1859.22C1616.65 1868.57 1608.87 1876.16 1599.28 1876.16Z" fill="#E77D02"/>
</svg>
