<svg width="288" height="1200" viewBox="0 0 288 1200" fill="none" xmlns="http://www.w3.org/2000/svg">
<path fill-rule="evenodd" clip-rule="evenodd" d="M0 1200L18 1175C36 1150 72 1100 108 1050C144 1000 180 950 156 900C132 850 48 800 54 750C60 700 156 650 186 600C216 550 180 500 150 450C120 400 96 350 102 300C108 250 144 200 132 150C120 100 60 50 30 25L0 0H288V25C288 50 288 100 288 150C288 200 288 250 288 300C288 350 288 400 288 450C288 500 288 550 288 600C288 650 288 700 288 750C288 800 288 850 288 900C288 950 288 1000 288 1050C288 1100 288 1150 288 1175V1200H0Z" fill="white"/>
</svg>
