<svg width="4959" height="2399" viewBox="0 0 4959 2399" fill="none" xmlns="http://www.w3.org/2000/svg">
<path fill-rule="evenodd" clip-rule="evenodd" d="M4959 0L4941 25C4923 50 4887 100 4851 150C4815 200 4779 250 4803 300C4827 350 4911 400 4905 450C4899 500 4803 550 4773 600C4743 650 4779 700 4809 750C4839 800 4863 850 4857 900C4851 950 4815 1000 4827 1050C4839 1100 4899 1150 4929 1175L4959 1200H4671V1175C4671 1150 4671 1100 4671 1050C4671 1000 4671 950 4671 900C4671 850 4671 800 4671 750C4671 700 4671 650 4671 600C4671 550 4671 500 4671 450C4671 400 4671 350 4671 300C4671 250 4671 200 4671 150C4671 100 4671 50 4671 25V0L4959 0Z" fill="#7DC5F5"/>
<path fill-rule="evenodd" clip-rule="evenodd" d="M4959 1199L4941 1224C4923 1249 4887 1299 4851 1349C4815 1399 4779 1449 4803 1499C4827 1549 4911 1599 4905 1649C4899 1699 4803 1749 4773 1799C4743 1849 4779 1899 4809 1949C4839 1999 4863 2049 4857 2099C4851 2149 4815 2199 4827 2249C4839 2299 4899 2349 4929 2374L4959 2399H4671V2374C4671 2349 4671 2299 4671 2249C4671 2199 4671 2149 4671 2099C4671 2049 4671 1999 4671 1949C4671 1899 4671 1849 4671 1799C4671 1749 4671 1699 4671 1649C4671 1599 4671 1549 4671 1499C4671 1449 4671 1399 4671 1349C4671 1299 4671 1249 4671 1224V1199H4959Z" fill="#7DC5F5"/>
<rect width="4708" height="2399" fill="#7DC5F5"/>
</svg>
